<svg width="177" height="58" viewBox="0 0 175 45" fill="none" xmlns="http://www.w3.org/2000/svg">
<path d="M5.624 20.648H36.872V25.736H5.624V20.648ZM0.968 35.048H41.192V40.28H0.968V35.048ZM17.816 22.952H24.2V36.728H17.816V22.952ZM5.624 3.848H36.536V8.984H12.008V22.856H5.624V3.848ZM73.6843 0.823999H80.0683V25.736H73.6843V0.823999ZM78.2923 10.808H85.9723V15.992H78.2923V10.808ZM46.7563 19.064H50.4523C60.1003 19.064 64.9003 18.824 70.2283 17.72L70.8523 22.76C65.4283 23.96 60.3403 24.2 50.4523 24.2H46.7563V19.064ZM46.7563 3.56H66.4843V8.648H53.0923V22.04H46.7563V3.56ZM51.1723 27.656H80.0683V44.792H51.1723V27.656ZM73.8283 32.696H57.4603V39.752H73.8283V32.696ZM93.9365 20.648H125.185V25.736H93.9365V20.648ZM89.2805 35.048H129.505V40.28H89.2805V35.048ZM106.129 22.952H112.513V36.728H106.129V22.952ZM93.9365 3.848H124.849V8.984H100.321V22.856H93.9365V3.848ZM161.997 0.823999H168.381V25.736H161.997V0.823999ZM166.605 10.808H174.285V15.992H166.605V10.808ZM135.069 19.064H138.765C148.413 19.064 153.213 18.824 158.541 17.72L159.165 22.76C153.741 23.96 148.653 24.2 138.765 24.2H135.069V19.064ZM135.069 3.56H154.797V8.648H141.405V22.04H135.069V3.56ZM139.485 27.656H168.381V44.792H139.485V27.656ZM162.141 32.696H145.773V39.752H162.141V32.696Z" fill="url(#paint0_linear_238_975)"/>
<defs>
<linearGradient id="paint0_linear_238_975" x1="-1" y1="-5" x2="176" y2="53" gradientUnits="userSpaceOnUse">
<stop offset="0.35243" stop-color="#2272FF"/>
<stop offset="1" stop-color="#2460B9"/>
</linearGradient>
</defs>
</svg>
